<svg width="17" height="16" viewBox="0 0 17 16" fill="none" xmlns="http://www.w3.org/2000/svg">
<g id="Icon">
<path id="Vector" fill-rule="evenodd" clip-rule="evenodd" d="M3 3V8H5V3H3ZM6.5 3V8.57295L8.67609 12.9251C8.84657 12.8633 9.0032 12.7646 9.13388 12.6339C9.3683 12.3995 9.5 12.0815 9.5 11.75V10.25C9.5 9.83579 9.83579 9.5 10.25 9.5H14.1187L14.1206 9.5C14.1554 9.50009 14.1898 9.49273 14.2215 9.47842C14.2532 9.46412 14.2815 9.44319 14.3044 9.41705C14.3273 9.39091 14.3444 9.36017 14.3545 9.32688C14.3646 9.29359 14.3674 9.25853 14.3628 9.22406L14.362 9.21803L13.6121 3.21874C13.6045 3.15852 13.5753 3.10313 13.5299 3.06288C13.4848 3.02288 13.4267 3.00056 13.3664 3H6.5ZM5.28647 9.5H2.75C2.41848 9.5 2.10054 9.36831 1.86612 9.13388C1.6317 8.89946 1.5 8.58152 1.5 8.25V2.75C1.5 2.41848 1.6317 2.10054 1.86612 1.86612C2.10054 1.6317 2.41848 1.5 2.75 1.5H13.3687L13.3722 1.50001C13.7971 1.50199 14.2067 1.65844 14.5247 1.9402C14.8426 2.22195 15.0473 2.60975 15.1004 3.03126L15.1005 3.03197L15.8501 9.02925C15.8824 9.27481 15.8619 9.52444 15.7902 9.76151C15.7181 9.99964 15.5958 10.2196 15.4317 10.4066C15.2676 10.5936 15.0653 10.7433 14.8385 10.8456C14.6121 10.9478 14.3665 11.0004 14.1181 11H11V11.75C11 12.4793 10.7103 13.1788 10.1945 13.6945C9.67882 14.2103 8.97935 14.5 8.25 14.5C7.96592 14.5 7.70622 14.3395 7.57918 14.0854L5.28647 9.5Z" fill="white"/>
</g>
</svg>
