<svg width="17" height="16" viewBox="0 0 17 16" fill="none" xmlns="http://www.w3.org/2000/svg">
<g id="Icon">
<path id="Vector" fill-rule="evenodd" clip-rule="evenodd" d="M7.57918 1.91459C7.70622 1.6605 7.96592 1.5 8.25 1.5C8.97935 1.5 9.67882 1.78973 10.1945 2.30546C10.7103 2.82118 11 3.52065 11 4.25V5H14.1179C14.3664 4.99953 14.6121 5.05216 14.8385 5.15438C15.0653 5.25673 15.2676 5.40643 15.4317 5.59342C15.5958 5.78041 15.7181 6.00036 15.7902 6.23849C15.8619 6.47556 15.8824 6.72518 15.8501 6.97074L15.1004 12.9687C15.0473 13.3903 14.8426 13.7781 14.5247 14.0598C14.2067 14.3416 13.7971 14.498 13.3722 14.5L13.3687 14.5H2.75C2.41848 14.5 2.10054 14.3683 1.86612 14.1339C1.6317 13.8995 1.5 13.5815 1.5 13.25V7.75C1.5 7.41848 1.6317 7.10054 1.86612 6.86612C2.10054 6.6317 2.41848 6.5 2.75 6.5H5.28647L7.57918 1.91459ZM5 8H3V13H5V8ZM6.5 13H13.3664C13.4267 12.9995 13.4847 12.9771 13.5299 12.9371C13.5753 12.8969 13.6045 12.8415 13.6121 12.7813L14.362 6.78197L14.3628 6.77594C14.3674 6.74147 14.3646 6.70641 14.3545 6.67312C14.3444 6.63983 14.3273 6.60909 14.3044 6.58295C14.2815 6.55681 14.2532 6.53589 14.2215 6.52158C14.1898 6.50727 14.1554 6.49991 14.1206 6.5L14.1187 6.5H10.25C9.83579 6.5 9.5 6.16421 9.5 5.75V4.25C9.5 3.91848 9.3683 3.60054 9.13388 3.36612C9.0032 3.23544 8.84657 3.13668 8.67609 3.07486L6.5 7.42705V13Z" fill="white"/>
</g>
</svg>
