<svg width="102" height="18" viewBox="0 0 102 18" fill="none" xmlns="http://www.w3.org/2000/svg">
<path d="M7.71094 5V7.5H0.484375V5H7.71094ZM2.125 2.125H5.45313V13.3125C5.45313 13.6198 5.5 13.8594 5.59375 14.0312C5.6875 14.1979 5.81771 14.3151 5.98438 14.3828C6.15625 14.4505 6.35417 14.4844 6.57813 14.4844C6.73438 14.4844 6.89063 14.4714 7.04688 14.4453C7.20312 14.4141 7.32292 14.3906 7.40625 14.375L7.92969 16.8516C7.76302 16.9036 7.52865 16.9635 7.22656 17.0313C6.92448 17.1042 6.55729 17.1484 6.125 17.1641C5.32292 17.1953 4.61979 17.0885 4.01563 16.8437C3.41667 16.599 2.95052 16.2187 2.61719 15.7031C2.28385 15.1875 2.11979 14.5365 2.125 13.75V2.125ZM9.87891 17V5H13.1055V7.09375H13.2305C13.4492 6.34896 13.8164 5.78646 14.332 5.40625C14.8477 5.02083 15.4414 4.82812 16.1133 4.82812C16.2799 4.82812 16.4596 4.83854 16.6523 4.85937C16.8451 4.88021 17.0143 4.90885 17.1602 4.94531V7.89844C17.0039 7.85156 16.7878 7.8099 16.5117 7.77344C16.2357 7.73698 15.9831 7.71875 15.7539 7.71875C15.2643 7.71875 14.8268 7.82552 14.4414 8.03906C14.0612 8.2474 13.7591 8.53906 13.5352 8.91406C13.3164 9.28906 13.207 9.72135 13.207 10.2109V17H9.87891ZM23.791 17.2344C22.5566 17.2344 21.4941 16.9844 20.6035 16.4844C19.7181 15.9792 19.0358 15.2656 18.5566 14.3437C18.0775 13.4167 17.8379 12.3203 17.8379 11.0547C17.8379 9.82031 18.0775 8.73698 18.5566 7.80469C19.0358 6.8724 19.7103 6.14583 20.5801 5.625C21.4551 5.10417 22.4811 4.84375 23.6582 4.84375C24.4499 4.84375 25.1868 4.97135 25.8691 5.22656C26.5566 5.47656 27.1556 5.85417 27.666 6.35937C28.1816 6.86458 28.5827 7.5 28.8691 8.26562C29.1556 9.02604 29.2988 9.91667 29.2988 10.9375V11.8516H19.166V9.78906H26.166C26.166 9.3099 26.0618 8.88542 25.8535 8.51563C25.6452 8.14583 25.3561 7.85677 24.9863 7.64844C24.6217 7.4349 24.1973 7.32812 23.7129 7.32812C23.2077 7.32812 22.7598 7.44531 22.3691 7.67969C21.9837 7.90885 21.6816 8.21875 21.4629 8.60937C21.2441 8.99479 21.1322 9.42448 21.127 9.89844V11.8594C21.127 12.4531 21.2363 12.9661 21.4551 13.3984C21.679 13.8307 21.9941 14.1641 22.4004 14.3984C22.8066 14.6328 23.2884 14.75 23.8457 14.75C24.2155 14.75 24.554 14.6979 24.8613 14.5938C25.1686 14.4896 25.4316 14.3333 25.6504 14.125C25.8691 13.9167 26.0358 13.6615 26.1504 13.3594L29.2285 13.5625C29.0723 14.3021 28.752 14.9479 28.2676 15.5C27.7884 16.0469 27.1686 16.474 26.4082 16.7813C25.653 17.0833 24.7806 17.2344 23.791 17.2344ZM31.4707 17V5H34.7988V17H31.4707ZM33.1426 3.45312C32.6478 3.45312 32.2233 3.28906 31.8691 2.96094C31.5202 2.6276 31.3457 2.22917 31.3457 1.76562C31.3457 1.30729 31.5202 0.914062 31.8691 0.585938C32.2233 0.252604 32.6478 0.0859367 33.1426 0.0859367C33.6374 0.0859367 34.0592 0.252604 34.4082 0.585938C34.7624 0.914062 34.9395 1.30729 34.9395 1.76562C34.9395 2.22917 34.7624 2.6276 34.4082 2.96094C34.0592 3.28906 33.6374 3.45312 33.1426 3.45312ZM40.793 10.0625V17H37.4648V5H40.6367V7.11719H40.7773C41.043 6.41927 41.4883 5.86719 42.1133 5.46094C42.7383 5.04948 43.4961 4.84375 44.3867 4.84375C45.2201 4.84375 45.9466 5.02604 46.5664 5.39062C47.1862 5.75521 47.668 6.27604 48.0117 6.95312C48.3555 7.625 48.5273 8.42708 48.5273 9.35937V17H45.1992V9.95312C45.2044 9.21875 45.0169 8.64583 44.6367 8.23438C44.2565 7.81771 43.7331 7.60937 43.0664 7.60937C42.6185 7.60937 42.2227 7.70573 41.8789 7.89844C41.5404 8.09115 41.2747 8.3724 41.082 8.74219C40.8945 9.10677 40.7982 9.54688 40.793 10.0625ZM56.6191 17.2344C55.3848 17.2344 54.3223 16.9844 53.4316 16.4844C52.5462 15.9792 51.8639 15.2656 51.3848 14.3437C50.9056 13.4167 50.666 12.3203 50.666 11.0547C50.666 9.82031 50.9056 8.73698 51.3848 7.80469C51.8639 6.8724 52.5384 6.14583 53.4082 5.625C54.2832 5.10417 55.3092 4.84375 56.4863 4.84375C57.278 4.84375 58.015 4.97135 58.6973 5.22656C59.3848 5.47656 59.9837 5.85417 60.4941 6.35937C61.0098 6.86458 61.4108 7.5 61.6973 8.26562C61.9837 9.02604 62.127 9.91667 62.127 10.9375V11.8516H51.9941V9.78906H58.9941C58.9941 9.3099 58.89 8.88542 58.6816 8.51563C58.4733 8.14583 58.1842 7.85677 57.8145 7.64844C57.4499 7.4349 57.0254 7.32812 56.541 7.32812C56.0358 7.32812 55.5879 7.44531 55.1973 7.67969C54.8118 7.90885 54.5098 8.21875 54.291 8.60937C54.0723 8.99479 53.9603 9.42448 53.9551 9.89844V11.8594C53.9551 12.4531 54.0645 12.9661 54.2832 13.3984C54.5072 13.8307 54.8223 14.1641 55.2285 14.3984C55.6348 14.6328 56.1165 14.75 56.6738 14.75C57.0436 14.75 57.3822 14.6979 57.6895 14.5938C57.9967 14.4896 58.2598 14.3333 58.4785 14.125C58.6973 13.9167 58.8639 13.6615 58.9785 13.3594L62.0566 13.5625C61.9004 14.3021 61.5801 14.9479 61.0957 15.5C60.6165 16.0469 59.9967 16.474 59.2363 16.7813C58.4811 17.0833 57.6087 17.2344 56.6191 17.2344ZM66.2441 17.2031C65.7285 17.2031 65.2858 17.0208 64.916 16.6562C64.5514 16.2865 64.3691 15.8437 64.3691 15.3281C64.3691 14.8177 64.5514 14.3802 64.916 14.0156C65.2858 13.651 65.7285 13.4687 66.2441 13.4687C66.7441 13.4687 67.1816 13.651 67.5566 14.0156C67.9316 14.3802 68.1191 14.8177 68.1191 15.3281C68.1191 15.6719 68.0306 15.987 67.8535 16.2734C67.6816 16.5547 67.4551 16.7812 67.1738 16.9531C66.8926 17.1198 66.5827 17.2031 66.2441 17.2031ZM70.8516 17V5H74.0234V7.11719H74.1641C74.4141 6.41406 74.8307 5.85937 75.4141 5.45312C75.9974 5.04687 76.6953 4.84375 77.5078 4.84375C78.3307 4.84375 79.0313 5.04948 79.6094 5.46094C80.1875 5.86719 80.5729 6.41927 80.7656 7.11719H80.8906C81.1354 6.42969 81.5781 5.88021 82.2188 5.46875C82.8646 5.05208 83.6276 4.84375 84.5078 4.84375C85.6276 4.84375 86.5365 5.20052 87.2344 5.91406C87.9375 6.6224 88.2891 7.6276 88.2891 8.92969V17H84.9688V9.58594C84.9688 8.91927 84.7917 8.41927 84.4375 8.08594C84.0833 7.7526 83.6406 7.58594 83.1094 7.58594C82.5052 7.58594 82.0339 7.77865 81.6953 8.16406C81.3568 8.54427 81.1875 9.04687 81.1875 9.67187V17H77.9609V9.51562C77.9609 8.92708 77.7917 8.45833 77.4531 8.10937C77.1198 7.76042 76.6797 7.58594 76.1328 7.58594C75.763 7.58594 75.4297 7.67969 75.1328 7.86719C74.8411 8.04948 74.6094 8.30729 74.4375 8.64062C74.2656 8.96875 74.1797 9.35417 74.1797 9.79687V17H70.8516ZM96.3867 17.2344C95.1523 17.2344 94.0898 16.9844 93.1992 16.4844C92.3138 15.9792 91.6315 15.2656 91.1523 14.3437C90.6732 13.4167 90.4336 12.3203 90.4336 11.0547C90.4336 9.82031 90.6732 8.73698 91.1523 7.80469C91.6315 6.8724 92.306 6.14583 93.1758 5.625C94.0508 5.10417 95.0768 4.84375 96.2539 4.84375C97.0456 4.84375 97.7826 4.97135 98.4648 5.22656C99.1523 5.47656 99.7513 5.85417 100.262 6.35937C100.777 6.86458 101.178 7.5 101.465 8.26562C101.751 9.02604 101.895 9.91667 101.895 10.9375V11.8516H91.7617V9.78906H98.7617C98.7617 9.3099 98.6576 8.88542 98.4492 8.51563C98.2409 8.14583 97.9518 7.85677 97.582 7.64844C97.2174 7.4349 96.793 7.32812 96.3086 7.32812C95.8034 7.32812 95.3555 7.44531 94.9648 7.67969C94.5794 7.90885 94.2773 8.21875 94.0586 8.60937C93.8398 8.99479 93.7279 9.42448 93.7227 9.89844V11.8594C93.7227 12.4531 93.832 12.9661 94.0508 13.3984C94.2747 13.8307 94.5898 14.1641 94.9961 14.3984C95.4023 14.6328 95.8841 14.75 96.4414 14.75C96.8112 14.75 97.1497 14.6979 97.457 14.5938C97.7643 14.4896 98.0273 14.3333 98.2461 14.125C98.4648 13.9167 98.6315 13.6615 98.7461 13.3594L101.824 13.5625C101.668 14.3021 101.348 14.9479 100.863 15.5C100.384 16.0469 99.7643 16.474 99.0039 16.7813C98.2487 17.0833 97.3763 17.2344 96.3867 17.2344Z" fill="#89C5CC"/>
</svg>
