<svg width="250" height="193" viewBox="0 0 250 193" fill="none" xmlns="http://www.w3.org/2000/svg">
<g id="Ebene 4">
<g id="&#60;Group&#62;">
<g id="&#60;Group&#62;_2">
<path id="&#60;Path&#62;" d="M134.5 180.214C130.214 183.5 144.643 195.643 109.214 182.857C73.8571 170.071 59.4286 125.5 52.2143 100.929C45 76.3572 64.3571 42.9286 77.1429 33.4286C89.9286 23.9286 113.5 20 116.143 19.6429C118.714 19.3572 122.357 17.7143 128.571 11.5C134.786 5.28573 154.429 -1.2857 168.571 1.64288C182.643 4.57145 217.714 38 240.929 85.2143C264.214 132.357 232.786 166.143 227.214 166.143C221.643 166.143 189.5 144.5 186.571 141.857C183.643 139.286 176.429 138.571 171.143 136.643C165.929 134.643 153.786 120.286 153.786 120.286C155.786 156.286 138.714 176.929 134.5 180.214Z" fill="#EAB363"/>
<path id="&#60;Path&#62;_2" d="M120.714 184.786C113.143 184.786 93.5 171.071 72.5714 142.214C51.5714 113.357 57.5 73.0715 57.5 73.0715C53.5714 134.357 125 181.857 125 181.857C125 181.857 128.214 184.786 120.714 184.786Z" fill="#8C5E28"/>
<path id="&#60;Path&#62;_3" d="M171.143 136.643C165.929 134.643 153.786 120.286 153.786 120.286C153.786 120.286 148.214 61.2858 153.786 35.4286C159.357 9.50004 162.286 9.21433 166.214 17.7143C169.786 25.3572 170.929 108.143 183.286 140.071C179.786 138.786 174.929 138.071 171.143 136.643Z" fill="#E2942D"/>
<path id="&#60;Path&#62;_4" d="M115.143 21.6429C115.143 21.6429 104 30.7857 101.714 31.5C99.4286 32.1429 73.5 45.5715 66.3571 59.6429C59.1429 73.7143 63.7143 52.1429 71.2143 44.5715C78.7857 37.0715 97.4286 23.5715 115.143 21.6429Z" fill="#8C5E28"/>
<path id="&#60;Path&#62;_5" d="M108.071 168.571C63.9286 192.5 11.6429 192.714 11.6429 192.714C17.5 177.929 0.571434 152.857 0.571434 152.857C49.2143 158 81.2143 140.071 81.2143 140.071C82.3572 141.571 108.071 168.571 108.071 168.571Z" fill="#E6E6E6"/>
<path id="&#60;Path&#62;_6" opacity="0.1" d="M108.071 168.571C94.5714 175.857 80.3571 180.929 67.0714 184.5C62.2143 167.143 50.9286 157.286 41.8571 152C66.5 148.286 81.2143 140.071 81.2143 140.071C82.3571 141.571 108.071 168.571 108.071 168.571Z" fill="black"/>
</g>
<path id="&#60;Path&#62;_7" d="M134.214 27.6429C127.286 40.8572 108.857 32.8572 113 32.6429C117.143 32.4286 129.571 15.3572 137.857 9.64286C146.214 3.92858 168.571 1.64286 171.071 5.21429C173.643 8.78572 166.5 9.35715 158.214 9.64286C149.857 9.85715 144.357 51.7857 144.357 51.7857C129.143 43.9286 141.143 14.4286 134.214 27.6429Z" fill="#F4CD9A"/>
</g>
</g>
</svg>
