<svg width="32" height="32" viewBox="0 0 32 32" fill="none" xmlns="http://www.w3.org/2000/svg">
<path d="M29.5462 17.425C29.3538 17.2322 29.1125 17.0954 28.8483 17.0293C28.584 16.9633 28.3067 16.9704 28.0462 17.05C26.2264 17.5994 24.2916 17.6449 22.4479 17.1815C20.6043 16.7182 18.9208 15.7635 17.5769 14.4191C16.233 13.0746 15.2789 11.3908 14.8163 9.54699C14.3537 7.70316 14.3999 5.76839 14.95 3.94875C15.0302 3.68812 15.0379 3.41056 14.9722 3.14589C14.9065 2.88123 14.7699 2.63949 14.5771 2.44666C14.3842 2.25384 14.1425 2.11723 13.8778 2.05152C13.6132 1.98581 13.3356 1.9935 13.075 2.07375C10.338 2.91499 7.93609 4.59819 6.21124 6.88375C4.70287 8.88861 3.78303 11.2741 3.55493 13.7727C3.32684 16.2712 3.79952 18.7839 4.91994 21.0287C6.04035 23.2736 7.76416 25.1618 9.89795 26.4815C12.0317 27.8012 14.4911 28.5002 17 28.5C19.9292 28.5086 22.7803 27.5562 25.1162 25.7887C27.4006 24.0622 29.082 21.659 29.9212 18.9212C30.0001 18.6613 30.0069 18.3847 29.9408 18.1212C29.8748 17.8577 29.7384 17.6171 29.5462 17.425ZM23.3112 23.3925C21.2894 24.9146 18.7858 25.6552 16.2612 25.4781C13.7367 25.3009 11.361 24.218 9.57153 22.4285C7.78202 20.6389 6.69904 18.2633 6.5219 15.7388C6.34477 13.2142 7.0854 10.7106 8.60749 8.68875C9.4084 7.62933 10.401 6.72959 11.5337 6.03625C11.5112 6.35625 11.5 6.6775 11.5 7C11.504 10.5792 12.9275 14.0107 15.4584 16.5416C17.9893 19.0724 21.4208 20.496 25 20.5C25.3225 20.5 25.6437 20.4887 25.9637 20.4662C25.2707 21.5992 24.3709 22.5919 23.3112 23.3925Z" fill="#121214"/>
</svg>
