<svg width="64" height="64" viewBox="0 0 64 64" fill="none" xmlns="http://www.w3.org/2000/svg">
<g id="ph:speaker-high">
<path id="Vector" d="M38.8775 6.20249C38.5412 6.03861 38.1656 5.97234 37.7935 6.01123C37.4214 6.05012 37.0677 6.19261 36.7725 6.42249L19.3125 20H8C6.93913 20 5.92172 20.4214 5.17157 21.1716C4.42143 21.9217 4 22.9391 4 24V40C4 41.0609 4.42143 42.0783 5.17157 42.8284C5.92172 43.5786 6.93913 44 8 44H19.3125L36.7725 57.5775C37.068 57.8072 37.4219 57.9494 37.7942 57.9879C38.1664 58.0264 38.542 57.9597 38.8782 57.7953C39.2145 57.631 39.4978 57.3756 39.6961 57.0583C39.8944 56.7409 39.9997 56.3742 40 56V7.99999C40.0001 7.62531 39.8949 7.25815 39.6964 6.94035C39.4979 6.62255 39.2142 6.36688 38.8775 6.20249ZM8 24H18V40H8V24ZM36 51.91L22 41.0225V22.9775L36 12.09V51.91ZM49.5 25.39C51.1087 27.2162 51.9961 29.5663 51.9961 32C51.9961 34.4337 51.1087 36.7838 49.5 38.61C49.1467 38.9982 48.6548 39.232 48.1306 39.2608C47.6065 39.2896 47.092 39.1112 46.6982 38.764C46.3044 38.4169 46.0629 37.9288 46.0258 37.4051C45.9888 36.8814 46.1591 36.3642 46.5 35.965C47.4646 34.8694 47.9968 33.4597 47.9968 32C47.9968 30.5403 47.4646 29.1306 46.5 28.035C46.1591 27.6358 45.9888 27.1185 46.0258 26.5949C46.0629 26.0712 46.3044 25.5831 46.6982 25.236C47.092 24.8888 47.6065 24.7103 48.1306 24.7392C48.6548 24.768 49.1467 25.0017 49.5 25.39ZM62 32C62.0029 36.9205 60.1895 41.6689 56.9075 45.335C56.5512 45.7205 56.0577 45.9505 55.5333 45.9753C55.009 46.0001 54.4959 45.8178 54.1048 45.4677C53.7137 45.1176 53.4759 44.6278 53.4427 44.1039C53.4095 43.58 53.5837 43.0641 53.9275 42.6675C56.551 39.7341 58.0014 35.9367 58.0014 32.0012C58.0014 28.0658 56.551 24.2684 53.9275 21.335C53.7474 21.1401 53.6079 20.9114 53.5171 20.6621C53.4263 20.4128 53.386 20.148 53.3985 19.8829C53.4111 19.6179 53.4762 19.358 53.5902 19.1184C53.7042 18.8788 53.8647 18.6643 54.0624 18.4874C54.2601 18.3104 54.491 18.1746 54.7417 18.0877C54.9924 18.0009 55.2579 17.9648 55.5227 17.9815C55.7875 17.9983 56.0463 18.0676 56.284 18.1854C56.5218 18.3031 56.7337 18.467 56.9075 18.6675C60.1903 22.332 62.0039 27.08 62 32Z" fill="#42D3FF"/>
</g>
</svg>
