<svg width="32" height="32" viewBox="0 0 32 32" fill="none" xmlns="http://www.w3.org/2000/svg">
<g clip-path="url(#clip0_1403_31)">
<path d="M14.5 4V2C14.5 1.60218 14.658 1.22064 14.9393 0.93934C15.2206 0.658035 15.6022 0.5 16 0.5C16.3978 0.5 16.7794 0.658035 17.0607 0.93934C17.342 1.22064 17.5 1.60218 17.5 2V4C17.5 4.39782 17.342 4.77936 17.0607 5.06066C16.7794 5.34196 16.3978 5.5 16 5.5C15.6022 5.5 15.2206 5.34196 14.9393 5.06066C14.658 4.77936 14.5 4.39782 14.5 4ZM24.5 16C24.5 17.6811 24.0015 19.3245 23.0675 20.7223C22.1335 22.1202 20.806 23.2096 19.2528 23.853C17.6996 24.4963 15.9906 24.6646 14.3417 24.3367C12.6929 24.0087 11.1783 23.1992 9.98959 22.0104C8.80085 20.8217 7.9913 19.3071 7.66333 17.6583C7.33535 16.0094 7.50368 14.3004 8.14702 12.7472C8.79037 11.194 9.87984 9.8665 11.2777 8.93251C12.6755 7.99852 14.3189 7.5 16 7.5C18.2536 7.50232 20.4143 8.39859 22.0078 9.99215C23.6014 11.5857 24.4977 13.7464 24.5 16ZM21.5 16C21.5 14.9122 21.1774 13.8488 20.5731 12.9444C19.9687 12.0399 19.1098 11.3349 18.1048 10.9187C17.0998 10.5024 15.9939 10.3935 14.927 10.6057C13.8601 10.8179 12.8801 11.3417 12.1109 12.1109C11.3417 12.8801 10.8179 13.8601 10.6057 14.927C10.3935 15.9939 10.5024 17.0998 10.9187 18.1048C11.3349 19.1098 12.0399 19.9687 12.9444 20.5731C13.8488 21.1774 14.9122 21.5 16 21.5C17.4582 21.4983 18.8562 20.9184 19.8873 19.8873C20.9184 18.8562 21.4983 17.4582 21.5 16ZM6.43875 8.56125C6.57828 8.70078 6.74393 8.81146 6.92623 8.88697C7.10853 8.96249 7.30393 9.00135 7.50125 9.00135C7.69857 9.00135 7.89397 8.96249 8.07627 8.88697C8.25857 8.81146 8.42422 8.70078 8.56375 8.56125C8.70328 8.42172 8.81396 8.25607 8.88947 8.07377C8.96499 7.89147 9.00385 7.69607 9.00385 7.49875C9.00385 7.30143 8.96499 7.10603 8.88947 6.92373C8.81396 6.74143 8.70328 6.57578 8.56375 6.43625L7.06375 4.93625C6.78196 4.65446 6.39976 4.49615 6.00125 4.49615C5.60274 4.49615 5.22054 4.65446 4.93875 4.93625C4.65696 5.21804 4.49865 5.60024 4.49865 5.99875C4.49865 6.39726 4.65696 6.77946 4.93875 7.06125L6.43875 8.56125ZM6.43875 23.4363L4.93875 24.9363C4.79922 25.0758 4.68854 25.2414 4.61303 25.4237C4.53751 25.606 4.49865 25.8014 4.49865 25.9988C4.49865 26.1961 4.53751 26.3915 4.61303 26.5738C4.68854 26.7561 4.79922 26.9217 4.93875 27.0613C5.22054 27.343 5.60274 27.5014 6.00125 27.5014C6.19857 27.5014 6.39397 27.4625 6.57627 27.387C6.75857 27.3115 6.92422 27.2008 7.06375 27.0613L8.56375 25.5613C8.84554 25.2795 9.00385 24.8973 9.00385 24.4988C9.00385 24.1002 8.84554 23.718 8.56375 23.4363C8.28196 23.1545 7.89976 22.9961 7.50125 22.9961C7.10274 22.9961 6.72054 23.1545 6.43875 23.4363ZM24.5 9C24.697 9.00015 24.8922 8.96149 25.0743 8.8862C25.2564 8.81092 25.4218 8.7005 25.5613 8.56125L27.0613 7.06125C27.2008 6.92172 27.3115 6.75607 27.387 6.57377C27.4625 6.39147 27.5014 6.19607 27.5014 5.99875C27.5014 5.80143 27.4625 5.60603 27.387 5.42373C27.3115 5.24143 27.2008 5.07578 27.0613 4.93625C26.9217 4.79672 26.7561 4.68604 26.5738 4.61053C26.3915 4.53501 26.1961 4.49615 25.9988 4.49615C25.8014 4.49615 25.606 4.53501 25.4237 4.61053C25.2414 4.68604 25.0758 4.79672 24.9363 4.93625L23.4363 6.43625C23.2252 6.64605 23.0814 6.91388 23.023 7.20567C22.9646 7.49745 22.9943 7.80002 23.1083 8.07487C23.2224 8.34973 23.4156 8.58445 23.6634 8.74919C23.9112 8.91392 24.2024 9.00123 24.5 9ZM25.5613 23.4387C25.2795 23.157 24.8973 22.9986 24.4988 22.9986C24.1002 22.9986 23.718 23.157 23.4363 23.4387C23.1545 23.7205 22.9961 24.1027 22.9961 24.5012C22.9961 24.8998 23.1545 25.282 23.4363 25.5637L24.9363 27.0637C25.218 27.3455 25.6002 27.5039 25.9988 27.5039C26.3973 27.5039 26.7795 27.3455 27.0613 27.0637C27.343 26.782 27.5014 26.3998 27.5014 26.0012C27.5014 25.6027 27.343 25.2205 27.0613 24.9387L25.5613 23.4387ZM5.5 16C5.5 15.6022 5.34196 15.2206 5.06066 14.9393C4.77936 14.658 4.39782 14.5 4 14.5H2C1.60218 14.5 1.22064 14.658 0.93934 14.9393C0.658035 15.2206 0.5 15.6022 0.5 16C0.5 16.3978 0.658035 16.7794 0.93934 17.0607C1.22064 17.342 1.60218 17.5 2 17.5H4C4.39782 17.5 4.77936 17.342 5.06066 17.0607C5.34196 16.7794 5.5 16.3978 5.5 16ZM16 26.5C15.6022 26.5 15.2206 26.658 14.9393 26.9393C14.658 27.2206 14.5 27.6022 14.5 28V30C14.5 30.3978 14.658 30.7794 14.9393 31.0607C15.2206 31.342 15.6022 31.5 16 31.5C16.3978 31.5 16.7794 31.342 17.0607 31.0607C17.342 30.7794 17.5 30.3978 17.5 30V28C17.5 27.6022 17.342 27.2206 17.0607 26.9393C16.7794 26.658 16.3978 26.5 16 26.5ZM30 14.5H28C27.6022 14.5 27.2206 14.658 26.9393 14.9393C26.658 15.2206 26.5 15.6022 26.5 16C26.5 16.3978 26.658 16.7794 26.9393 17.0607C27.2206 17.342 27.6022 17.5 28 17.5H30C30.3978 17.5 30.7794 17.342 31.0607 17.0607C31.342 16.7794 31.5 16.3978 31.5 16C31.5 15.6022 31.342 15.2206 31.0607 14.9393C30.7794 14.658 30.3978 14.5 30 14.5Z" fill="#F8F8FC"/>
</g>
<defs>
<clipPath id="clip0_1403_31">
<rect width="32" height="32" fill="white"/>
</clipPath>
</defs>
</svg>
