<svg width="64" height="64" viewBox="0 0 64 64" fill="none" xmlns="http://www.w3.org/2000/svg">
<g id="ph:speaker-none">
<path id="Vector" d="M38.8775 6.20249C38.5412 6.03861 38.1656 5.97234 37.7935 6.01123C37.4214 6.05012 37.0677 6.19261 36.7725 6.42249L19.3125 20H8C6.93913 20 5.92172 20.4214 5.17157 21.1716C4.42143 21.9217 4 22.9391 4 24V40C4 41.0609 4.42143 42.0783 5.17157 42.8284C5.92172 43.5786 6.93913 44 8 44H19.3125L36.7725 57.5775C37.068 57.8072 37.4219 57.9494 37.7942 57.9879C38.1664 58.0264 38.542 57.9597 38.8782 57.7953C39.2145 57.631 39.4978 57.3756 39.6961 57.0583C39.8944 56.7409 39.9997 56.3742 40 56V7.99999C40.0001 7.62531 39.8949 7.25815 39.6964 6.94035C39.4979 6.62255 39.2142 6.36688 38.8775 6.20249ZM8 24H18V40H8V24ZM36 51.91L22 41.0225V22.9775L36 12.09V51.91Z" fill="#F8FBFC"/>
</g>
</svg>
