<svg width="64" height="64" viewBox="0 0 64 64" fill="none" xmlns="http://www.w3.org/2000/svg">
<g id="ph:timer">
<path id="Vector" d="M32 10C27.2533 10 22.6131 11.4076 18.6663 14.0447C14.7195 16.6819 11.6434 20.4302 9.8269 24.8156C8.0104 29.201 7.53512 34.0266 8.46116 38.6822C9.38721 43.3377 11.673 47.6141 15.0294 50.9706C18.3859 54.327 22.6623 56.6128 27.3178 57.5388C31.9734 58.4649 36.799 57.9896 41.1844 56.1731C45.5698 54.3566 49.3181 51.2805 51.9553 47.3337C54.5924 43.3869 56 38.7467 56 34C55.9927 27.637 53.4618 21.5368 48.9625 17.0375C44.4632 12.5382 38.363 10.0073 32 10ZM32 54C28.0444 54 24.1776 52.827 20.8886 50.6294C17.5996 48.4318 15.0362 45.3082 13.5224 41.6537C12.0087 37.9991 11.6126 33.9778 12.3843 30.0982C13.156 26.2186 15.0608 22.6549 17.8579 19.8579C20.6549 17.0608 24.2186 15.156 28.0982 14.3843C31.9778 13.6126 35.9992 14.0087 39.6537 15.5224C43.3082 17.0362 46.4318 19.5996 48.6294 22.8886C50.827 26.1776 52 30.0444 52 34C51.9941 39.3025 49.885 44.3861 46.1356 48.1356C42.3861 51.885 37.3025 53.994 32 54ZM43.415 22.585C43.601 22.7707 43.7485 22.9913 43.8491 23.2341C43.9498 23.4769 44.0016 23.7372 44.0016 24C44.0016 24.2628 43.9498 24.5231 43.8491 24.7659C43.7485 25.0087 43.601 25.2293 43.415 25.415L33.415 35.415C33.2292 35.6008 33.0086 35.7482 32.7658 35.8488C32.523 35.9494 32.2628 36.0011 32 36.0011C31.7372 36.0011 31.477 35.9494 31.2342 35.8488C30.9914 35.7482 30.7708 35.6008 30.585 35.415C30.3992 35.2292 30.2518 35.0086 30.1512 34.7658C30.0507 34.523 29.9989 34.2628 29.9989 34C29.9989 33.7372 30.0507 33.477 30.1512 33.2342C30.2518 32.9914 30.3992 32.7708 30.585 32.585L40.585 22.585C40.7708 22.399 40.9913 22.2515 41.2341 22.1509C41.4769 22.0502 41.7372 21.9984 42 21.9984C42.2628 21.9984 42.5231 22.0502 42.7659 22.1509C43.0087 22.2515 43.2293 22.399 43.415 22.585ZM24 4C24 3.46957 24.2107 2.96086 24.5858 2.58579C24.9609 2.21071 25.4696 2 26 2H38C38.5304 2 39.0392 2.21071 39.4142 2.58579C39.7893 2.96086 40 3.46957 40 4C40 4.53043 39.7893 5.03914 39.4142 5.41421C39.0392 5.78929 38.5304 6 38 6H26C25.4696 6 24.9609 5.78929 24.5858 5.41421C24.2107 5.03914 24 4.53043 24 4Z" fill="#F8FBFC"/>
</g>
</svg>
